<svg class="puzzle-preview__svg" width="100%" height="100%" viewBox="0 0 24 24" version="1.1" xmlns="http://www.w3.org/2000/svg" xmlns:xlink="http://www.w3.org/1999/xlink" xml:space="preserve" xmlns:serif="http://www.serif.com/" style="fill-rule: evenodd; clip-rule: evenodd; stroke-linejoin: round; stroke-miterlimit: 2;"><desc>Puzzle preview</desc><g id="U"><path d="M11.4,3.7C11.4,3.62 11.368,3.544 11.312,3.488C11.256,3.432 11.18,3.4 11.1,3.4L3.9,3.4C3.624,3.4 3.4,3.624 3.4,3.9C3.4,5.41 3.4,9.896 3.4,11.1C3.4,11.18 3.432,11.256 3.488,11.312C3.544,11.368 3.62,11.4 3.7,11.4L9.4,11.4C10.505,11.4 11.4,10.505 11.4,9.4L11.4,3.7Z" style="fill: var(--color-2x2x2-up)"></path><path d="M19.8,3.9C19.8,3.624 19.576,3.4 19.3,3.4C17.79,3.4 13.304,3.4 12.1,3.4C12.02,3.4 11.944,3.432 11.888,3.488C11.832,3.544 11.8,3.62 11.8,3.7L11.8,9.4C11.8,10.505 12.695,11.4 13.8,11.4L19.5,11.4C19.58,11.4 19.656,11.368 19.712,11.312C19.768,11.256 19.8,11.18 19.8,11.1L19.8,3.9Z" style="fill: var(--color-2x2x2-up)"></path><path d="M11.4,13.8C11.4,12.695 10.505,11.8 9.4,11.8L3.7,11.8C3.62,11.8 3.544,11.832 3.488,11.888C3.432,11.944 3.4,12.02 3.4,12.1L3.4,19.3C3.4,19.576 3.624,19.8 3.9,19.8C5.41,19.8 9.896,19.8 11.1,19.8C11.18,19.8 11.256,19.768 11.312,19.712C11.368,19.656 11.4,19.58 11.4,19.5L11.4,13.8Z" style="fill: var(--color-2x2x2-up)"></path><path d="M19.8,12.1C19.8,12.02 19.768,11.944 19.712,11.888C19.656,11.832 19.58,11.8 19.5,11.8L13.8,11.8C12.695,11.8 11.8,12.695 11.8,13.8L11.8,19.5C11.8,19.58 11.832,19.656 11.888,19.712C11.944,19.768 12.02,19.8 12.1,19.8L19.3,19.8C19.576,19.8 19.8,19.576 19.8,19.3L19.8,12.1Z" style="fill: var(--color-2x2x2-up)"></path></g><g id="L"><path d="M0.5,3.4C0.367,3.4 0.24,3.453 0.146,3.546C0.053,3.64 0,3.767 -0,3.9L-0,10.9C0,11.176 0.224,11.4 0.5,11.4L2.7,11.4C2.78,11.4 2.856,11.368 2.912,11.312C2.968,11.256 3,11.18 3,11.1C3,9.896 3,5.41 3,3.9C3,3.624 2.776,3.4 2.5,3.4C1.945,3.4 1.055,3.4 0.5,3.4Z" style="fill: var(--color-2x2x2-left)"></path><path d="M0.5,11.8C0.367,11.8 0.24,11.853 0.146,11.946C0.053,12.04 0,12.167 0,12.3C0,13.736 0,17.864 0,19.3C0,19.576 0.224,19.8 0.5,19.8L2.5,19.8C2.633,19.8 2.76,19.747 2.854,19.654C2.947,19.56 3,19.433 3,19.3L3,12.1C3,12.02 2.968,11.944 2.912,11.888C2.856,11.832 2.78,11.8 2.7,11.8C2.185,11.8 1.128,11.8 0.5,11.8Z" style="fill: var(--color-2x2x2-left)"></path></g><g id="F"><path d="M3.4,22.7C3.4,22.833 3.453,22.96 3.546,23.054C3.64,23.147 3.767,23.2 3.9,23.2L10.9,23.2C11.176,23.2 11.4,22.976 11.4,22.7L11.4,20.5C11.4,20.42 11.368,20.344 11.312,20.288C11.256,20.232 11.18,20.2 11.1,20.2C9.896,20.2 5.41,20.2 3.9,20.2C3.624,20.2 3.4,20.424 3.4,20.7C3.4,21.255 3.4,22.145 3.4,22.7Z" style="fill: var(--color-2x2x2-front)"></path><path d="M11.8,22.7C11.8,22.833 11.853,22.96 11.946,23.054C12.04,23.147 12.167,23.2 12.3,23.2C13.736,23.2 17.864,23.2 19.3,23.2C19.576,23.2 19.8,22.976 19.8,22.7L19.8,20.7C19.8,20.567 19.747,20.44 19.654,20.346C19.56,20.253 19.433,20.2 19.3,20.2L12.1,20.2C12.02,20.2 11.944,20.232 11.888,20.288C11.832,20.344 11.8,20.42 11.8,20.5C11.8,21.015 11.8,22.072 11.8,22.7Z" style="fill: var(--color-2x2x2-front)"></path></g><g id="R"><path d="M22.7,19.8C22.833,19.8 22.96,19.747 23.054,19.654C23.147,19.56 23.2,19.433 23.2,19.3L23.2,12.3C23.2,12.024 22.976,11.8 22.7,11.8L20.5,11.8C20.42,11.8 20.344,11.832 20.288,11.888C20.232,11.944 20.2,12.02 20.2,12.1C20.2,13.304 20.2,17.79 20.2,19.3C20.2,19.576 20.424,19.8 20.7,19.8C21.255,19.8 22.145,19.8 22.7,19.8Z" style="fill: var(--color-2x2x2-right)"></path><path d="M22.7,11.4C22.833,11.4 22.96,11.347 23.054,11.254C23.147,11.16 23.2,11.033 23.2,10.9C23.2,9.464 23.2,5.336 23.2,3.9C23.2,3.624 22.976,3.4 22.7,3.4L20.7,3.4C20.567,3.4 20.44,3.453 20.346,3.546C20.253,3.64 20.2,3.767 20.2,3.9L20.2,11.1C20.2,11.18 20.232,11.256 20.288,11.312C20.344,11.368 20.42,11.4 20.5,11.4C21.015,11.4 22.072,11.4 22.7,11.4Z" style="fill: var(--color-2x2x2-right)"></path></g><g id="B"><path d="M19.8,0.5C19.8,0.367 19.747,0.24 19.654,0.146C19.56,0.053 19.433,0 19.3,-0L12.3,0C12.024,0 11.8,0.224 11.8,0.5L11.8,2.7C11.8,2.78 11.832,2.856 11.888,2.912C11.944,2.968 12.02,3 12.1,3C13.304,3 17.79,3 19.3,3C19.576,3 19.8,2.776 19.8,2.5C19.8,1.945 19.8,1.055 19.8,0.5Z" style="fill: var(--color-2x2x2-back)"></path><path d="M11.4,0.5C11.4,0.367 11.347,0.24 11.254,0.146C11.16,0.053 11.033,0 10.9,-0C9.464,0 5.336,0 3.9,0C3.624,0 3.4,0.224 3.4,0.5L3.4,2.5C3.4,2.633 3.453,2.76 3.546,2.854C3.64,2.947 3.767,3 3.9,3L11.1,3C11.18,3 11.256,2.968 11.312,2.912C11.368,2.856 11.4,2.78 11.4,2.7C11.4,2.185 11.4,1.128 11.4,0.5Z" style="fill: var(--color-2x2x2-back)"></path></g></svg>