<svg class="puzzle-preview__svg" width="100%" height="100%" viewBox="0 0 18 21" version="1.1" xmlns="http://www.w3.org/2000/svg" xmlns:xlink="http://www.w3.org/1999/xlink" xml:space="preserve" xmlns:serif="http://www.serif.com/" style="fill-rule: evenodd; clip-rule: evenodd; stroke-linejoin: round; stroke-miterlimit: 2;"><desc>Puzzle preview</desc><g id="R"><path d="M9.107,10.292C9.045,10.328 9.007,10.394 9.007,10.465L9.007,15.177C9.007,15.213 9.026,15.246 9.057,15.263C9.088,15.281 9.126,15.281 9.157,15.263C9.652,14.977 11.265,14.046 12.337,13.427C12.956,13.07 13.337,12.41 13.337,11.695L13.337,8.023C13.337,7.987 13.318,7.954 13.287,7.937C13.256,7.919 13.218,7.919 13.187,7.937C12.501,8.332 9.675,9.964 9.107,10.292Z" style="fill: var(--color-2x2x2-up)"></path><path d="M13.61,7.692C13.548,7.728 13.51,7.794 13.51,7.865L13.51,11.711C13.51,11.925 13.624,12.123 13.81,12.23C13.996,12.338 14.224,12.338 14.41,12.23C15.516,11.592 17.301,10.561 17.74,10.308C17.802,10.272 17.84,10.206 17.84,10.135C17.84,9.478 17.84,6.215 17.84,5.423C17.84,5.387 17.821,5.354 17.79,5.337C17.759,5.319 17.721,5.319 17.69,5.337C17.005,5.732 14.179,7.364 13.61,7.692Z" style="fill: var(--color-2x2x2-right);"></path><path d="M9.107,15.492C9.045,15.528 9.007,15.594 9.007,15.665C9.007,16.322 9.007,19.585 9.007,20.377C9.007,20.413 9.026,20.446 9.057,20.463C9.088,20.481 9.126,20.481 9.157,20.463C9.842,20.068 12.668,18.436 13.237,18.108C13.299,18.072 13.337,18.006 13.337,17.935L13.337,14.089C13.337,13.875 13.222,13.677 13.037,13.57C12.851,13.462 12.622,13.462 12.437,13.57C11.331,14.208 9.546,15.239 9.107,15.492Z" style="fill: var(--color-2x2x2-up)"></path><path d="M14.51,12.373C13.891,12.73 13.51,13.39 13.51,14.105L13.51,17.777C13.51,17.813 13.529,17.846 13.56,17.863C13.591,17.881 13.629,17.881 13.66,17.863C14.346,17.468 17.171,15.836 17.74,15.508C17.802,15.472 17.84,15.406 17.84,15.335L17.84,10.623C17.84,10.587 17.821,10.554 17.79,10.537C17.759,10.519 17.721,10.519 17.69,10.537C17.195,10.823 15.581,11.754 14.51,12.373Z" style="fill: var(--color-2x2x2-right);"></path></g><g id="F"><path d="M0,10.135C0,10.206 0.038,10.272 0.1,10.308C0.539,10.561 2.324,11.592 3.43,12.23C3.616,12.338 3.844,12.338 4.03,12.23C4.216,12.123 4.33,11.925 4.33,11.711C4.33,10.433 4.33,8.373 4.33,7.865C4.33,7.794 4.292,7.728 4.23,7.692C3.661,7.364 0.836,5.732 0.15,5.337C0.119,5.319 0.081,5.319 0.05,5.337C0.019,5.354 -0,5.387 0,5.423L0,10.135Z" style="fill: var(--color-2x2x2-front);"></path><path d="M4.503,11.695C4.503,12.41 4.885,13.07 5.503,13.427C6.575,14.046 8.188,14.977 8.683,15.263C8.714,15.281 8.753,15.281 8.783,15.263C8.814,15.246 8.833,15.213 8.833,15.177C8.833,14.385 8.833,11.122 8.833,10.465C8.833,10.394 8.795,10.328 8.733,10.292C8.165,9.964 5.339,8.332 4.653,7.937C4.622,7.919 4.584,7.919 4.553,7.937C4.522,7.954 4.503,7.987 4.503,8.023C4.503,8.595 4.503,10.458 4.503,11.695Z" style="fill: var(--color-2x2x2-front);"></path><path d="M-0,15.335C0,15.406 0.038,15.472 0.1,15.508C0.669,15.836 3.495,17.468 4.18,17.863C4.211,17.881 4.249,17.881 4.28,17.863C4.311,17.846 4.33,17.813 4.33,17.777C4.33,17.205 4.33,15.342 4.33,14.105C4.33,13.39 3.949,12.73 3.33,12.373C2.259,11.754 0.645,10.823 0.15,10.537C0.119,10.519 0.081,10.519 0.05,10.537C0.019,10.554 -0,10.587 0,10.623C-0,11.415 -0,14.678 -0,15.335Z" style="fill: var(--color-2x2x2-front);"></path><path d="M4.503,17.935C4.503,18.006 4.541,18.072 4.603,18.108C5.172,18.436 7.998,20.068 8.683,20.463C8.714,20.481 8.753,20.481 8.783,20.463C8.814,20.446 8.833,20.413 8.833,20.377C8.833,19.585 8.833,16.322 8.833,15.665C8.833,15.594 8.795,15.528 8.733,15.492C8.294,15.239 6.509,14.208 5.403,13.57C5.218,13.462 4.989,13.462 4.803,13.57C4.618,13.677 4.503,13.875 4.503,14.089L4.503,17.935Z" style="fill: var(--color-2x2x2-front);"></path></g><g id="U"><path d="M7.92,4.423C8.539,4.78 9.301,4.78 9.92,4.423C10.991,3.804 12.605,2.873 13.1,2.587C13.131,2.569 13.15,2.536 13.15,2.5C13.15,2.464 13.131,2.431 13.1,2.413C12.415,2.018 9.589,0.386 9.02,0.058C8.958,0.022 8.882,0.022 8.82,0.058C8.251,0.386 5.425,2.018 4.74,2.413C4.709,2.431 4.69,2.464 4.69,2.5C4.69,2.536 4.709,2.569 4.74,2.587C5.235,2.873 6.849,3.804 7.92,4.423Z" style="fill: var(--color-2x2x2-up);"></path><path d="M13.323,7.542C13.385,7.578 13.462,7.578 13.523,7.542C14.092,7.214 16.918,5.582 17.604,5.187C17.634,5.169 17.654,5.136 17.654,5.1C17.654,5.064 17.634,5.031 17.604,5.013C16.918,4.618 14.092,2.986 13.523,2.658C13.462,2.622 13.385,2.622 13.323,2.658C12.884,2.911 11.099,3.942 9.993,4.58C9.808,4.688 9.693,4.886 9.693,5.1C9.693,5.314 9.808,5.512 9.993,5.62C11.099,6.258 12.884,7.289 13.323,7.542Z" style="fill: var(--color-2x2x2-up);"></path><path d="M4.317,7.542C4.379,7.578 4.455,7.578 4.517,7.542C4.956,7.289 6.741,6.258 7.847,5.62C8.032,5.512 8.147,5.314 8.147,5.1C8.147,4.886 8.032,4.688 7.847,4.58C6.741,3.942 4.956,2.911 4.517,2.658C4.455,2.622 4.379,2.622 4.317,2.658C3.748,2.986 0.922,4.618 0.237,5.013C0.206,5.031 0.187,5.064 0.187,5.1C0.187,5.136 0.206,5.169 0.237,5.187C0.922,5.582 3.748,7.214 4.317,7.542Z" style="fill: var(--color-2x2x2-left)"></path><path d="M8.82,10.142C8.882,10.178 8.958,10.178 9.02,10.142C9.589,9.814 12.415,8.182 13.1,7.787C13.131,7.769 13.15,7.736 13.15,7.7C13.15,7.664 13.131,7.631 13.1,7.613C12.605,7.327 10.991,6.396 9.92,5.777C9.301,5.42 8.539,5.42 7.92,5.777C6.849,6.396 5.235,7.327 4.74,7.613C4.709,7.631 4.69,7.664 4.69,7.7C4.69,7.736 4.709,7.769 4.74,7.787C5.425,8.182 8.251,9.814 8.82,10.142Z" style="fill: var(--color-2x2x2-left)"></path></g></svg>