<?xml version="1.0" encoding="UTF-8" standalone="no"?><!DOCTYPE svg PUBLIC "-//W3C//DTD SVG 1.1//EN" "http://www.w3.org/Graphics/SVG/1.1/DTD/svg11.dtd"><svg width="100%" height="100%" viewBox="0 0 500 500" version="1.1" xmlns="http://www.w3.org/2000/svg" xmlns:xlink="http://www.w3.org/1999/xlink" xml:space="preserve" style="fill-rule:evenodd;clip-rule:evenodd;stroke-linejoin:round;stroke-miterlimit:1.41421;"><g><circle cx="250" cy="250" r="75" style="fill:#fff;"/><path d="M251.957,325c40.313,0 73.043,-33.606 73.043,-75c0,-41.394 -32.73,-75 -73.043,-75c12.094,17.5 21.913,45.082 21.913,75c0,29.918 -9.819,57.5 -21.913,75Z" style="fill:#ffe609;"/></g><path d="M20.19,479.81l45.6,-45.6c38.126,38.125 151.621,-13.463 253.289,-115.131c101.668,-101.668 153.256,-215.163 115.131,-253.289l45.6,-45.6c47.563,47.564 -16.796,189.153 -143.631,315.989c-126.836,126.835 -268.425,191.194 -315.989,143.631Z" style="fill:#ff751a;"/><path d="M479.81,479.81l-45.6,-45.6c38.125,-38.126 -13.463,-151.621 -115.131,-253.289c-101.668,-101.668 -215.163,-153.256 -253.289,-115.131l-45.6,-45.6c47.564,-47.563 189.153,16.796 315.989,143.631c126.835,126.836 191.194,268.425 143.631,315.989Z" style="fill:#15bd4a;"/><path d="M479.81,20.19l-45.6,45.6c-38.126,-38.125 -151.621,13.463 -253.289,115.131c-101.668,101.668 -153.256,215.163 -115.131,253.289l-45.6,45.6c-47.563,-47.564 16.796,-189.153 143.631,-315.989c126.836,-126.835 268.425,-191.194 315.989,-143.631Z" style="fill:#e01b4c;"/><path d="M271.366,394.704c71.397,48.609 135.917,66.432 162.844,39.506l45.6,45.6c-36.916,36.915 -130.472,6.41 -229.81,-68.399c7.099,-5.345 14.227,-10.917 21.366,-16.707Zm-251.176,-374.514l45.6,45.6c-38.125,38.126 13.463,151.621 115.131,253.289c22.76,22.759 46.112,43.009 69.079,60.304c-7.17,5.399 -14.302,10.511 -21.366,15.321c-21.677,-17.58 -43.454,-37.167 -64.813,-58.525c-126.835,-126.835 -191.193,-268.424 -143.631,-315.989Z" style="fill:#0076fd;"/></svg>