<svg class="puzzle-preview__svg" width="100%" height="100%" viewBox="0 0 27 31" version="1.1" xmlns="http://www.w3.org/2000/svg" xmlns:xlink="http://www.w3.org/1999/xlink" xml:space="preserve" xmlns:serif="http://www.serif.com/" style="fill-rule: evenodd; clip-rule: evenodd; stroke-linejoin: round; stroke-miterlimit: 2;"><desc>Puzzle preview</desc><g id="R"><path d="M17.34,18.339C17.65,18.16 17.84,17.83 17.84,17.473C17.84,16.344 17.84,13.895 17.84,13.223C17.84,13.187 17.821,13.154 17.79,13.137C17.759,13.119 17.721,13.119 17.69,13.137C17.005,13.532 14.179,15.164 13.61,15.492C13.548,15.528 13.51,15.594 13.51,15.665L13.51,20.377C13.51,20.413 13.529,20.446 13.56,20.463C13.591,20.481 13.629,20.481 13.66,20.463C14.241,20.128 16.362,18.903 17.34,18.339Z" style="fill: var(--color-3x3x3-front)"></path><path d="M20.843,16.316C21.772,15.78 22.343,14.79 22.343,13.718L22.343,10.623C22.343,10.587 22.324,10.554 22.293,10.537C22.263,10.519 22.224,10.519 22.193,10.537C21.508,10.932 18.682,12.564 18.113,12.892C18.051,12.928 18.013,12.994 18.013,13.065L18.013,16.564C18.013,16.85 18.166,17.114 18.413,17.257C18.661,17.4 18.966,17.4 19.213,17.257C19.718,16.966 20.31,16.624 20.843,16.316Z" style="fill: var(--color-3x3x3-front)"></path><path d="M26.747,12.908C26.809,12.872 26.847,12.806 26.847,12.735L26.847,8.023C26.847,7.987 26.828,7.954 26.797,7.937C26.766,7.919 26.728,7.919 26.697,7.937C26.011,8.332 23.185,9.964 22.617,10.292C22.555,10.328 22.517,10.394 22.517,10.465L22.517,14.917C22.517,15.006 22.564,15.089 22.642,15.133C22.719,15.178 22.814,15.178 22.892,15.133C23.827,14.593 26.228,13.207 26.747,12.908Z" style="fill: var(--color-3x3x3-front)"></path><path d="M16.34,24.116C17.268,23.58 17.84,22.59 17.84,21.518L17.84,19.636C17.84,19.35 17.688,19.086 17.44,18.943C17.193,18.8 16.888,18.8 16.64,18.943C15.536,19.58 14.011,20.461 13.61,20.692C13.548,20.728 13.51,20.794 13.51,20.865C13.51,21.522 13.51,24.785 13.51,25.577C13.51,25.613 13.529,25.646 13.56,25.663C13.591,25.681 13.629,25.681 13.66,25.663C14.083,25.419 15.321,24.705 16.34,24.116Z" style="fill: var(--color-3x3x3-front)"></path><path d="M21.343,21.227C21.962,20.87 22.343,20.21 22.343,19.495L22.343,17.036C22.343,16.75 22.191,16.486 21.943,16.343C21.696,16.2 21.391,16.2 21.143,16.343C20.639,16.634 20.046,16.976 19.513,17.284C18.585,17.82 18.013,18.81 18.013,19.882L18.013,21.764C18.013,22.05 18.166,22.314 18.413,22.457C18.661,22.6 18.966,22.6 19.213,22.457C19.883,22.07 20.709,21.594 21.343,21.227Z" style="fill: var(--color-3x3x3-front)"></path><path d="M26.747,18.108C26.809,18.072 26.847,18.006 26.847,17.935C26.847,17.278 26.847,14.015 26.847,13.223C26.847,13.187 26.828,13.154 26.797,13.137C26.766,13.119 26.728,13.119 26.697,13.137C26.274,13.381 25.036,14.095 24.017,14.684C23.088,15.22 22.517,16.21 22.517,17.282L22.517,19.164C22.517,19.45 22.669,19.714 22.917,19.857C23.164,20 23.469,20 23.717,19.857C24.821,19.22 26.346,18.339 26.747,18.108Z" style="fill: var(--color-3x3x3-front)"></path><path d="M17.74,28.508C17.802,28.472 17.84,28.406 17.84,28.335L17.84,23.883C17.84,23.794 17.792,23.711 17.715,23.667C17.638,23.622 17.542,23.622 17.465,23.667C16.529,24.207 14.129,25.593 13.61,25.892C13.548,25.928 13.51,25.994 13.51,26.065L13.51,30.777C13.51,30.813 13.529,30.846 13.56,30.863C13.591,30.881 13.629,30.881 13.66,30.863C14.346,30.468 17.171,28.836 17.74,28.508Z" style="fill: var(--color-3x3x3-front)"></path><path d="M22.243,25.908C22.305,25.872 22.343,25.806 22.343,25.735L22.343,22.236C22.343,21.95 22.191,21.686 21.943,21.543C21.696,21.4 21.391,21.4 21.143,21.543C20.639,21.834 20.046,22.176 19.513,22.484C18.585,23.02 18.013,24.01 18.013,25.082L18.013,28.177C18.013,28.213 18.032,28.246 18.063,28.263C18.094,28.281 18.132,28.281 18.163,28.263C18.849,27.868 21.675,26.236 22.243,25.908Z" style="fill: var(--color-3x3x3-front)"></path><path d="M26.747,23.308C26.809,23.272 26.847,23.206 26.847,23.135C26.847,22.478 26.847,19.215 26.847,18.423C26.847,18.387 26.828,18.354 26.797,18.337C26.766,18.319 26.728,18.319 26.697,18.337C26.115,18.672 23.994,19.897 23.017,20.461C22.707,20.64 22.517,20.97 22.517,21.327C22.517,22.374 22.517,24.557 22.517,25.404C22.517,25.475 22.555,25.541 22.617,25.577C22.679,25.613 22.755,25.613 22.817,25.577C23.692,25.072 26.213,23.616 26.747,23.308Z" style="fill: var(--color-3x3x3-front)"></path></g><g id="F"><path d="M-0,12.735C0,12.806 0.038,12.872 0.1,12.908C0.619,13.207 3.019,14.593 3.955,15.133C4.032,15.178 4.128,15.178 4.205,15.133C4.282,15.089 4.33,15.006 4.33,14.917L4.33,10.465C4.33,10.394 4.292,10.328 4.23,10.292C3.661,9.964 0.836,8.332 0.15,7.937C0.119,7.919 0.081,7.919 0.05,7.937C0.019,7.954 -0,7.987 -0,8.023L-0,12.735Z" style="fill: var(--color-3x3x3-left)"></path><path d="M4.503,13.718C4.503,14.79 5.075,15.78 6.003,16.316C6.536,16.624 7.129,16.966 7.633,17.257C7.881,17.4 8.186,17.4 8.433,17.257C8.681,17.114 8.833,16.85 8.833,16.564L8.833,13.065C8.833,12.994 8.795,12.928 8.733,12.892C8.165,12.564 5.339,10.932 4.653,10.537C4.622,10.519 4.584,10.519 4.553,10.537C4.522,10.554 4.503,10.587 4.503,10.623C4.503,11.112 4.503,12.541 4.503,13.718Z" style="fill: var(--color-3x3x3-left)"></path><path d="M9.007,17.473C9.007,17.83 9.197,18.16 9.507,18.339C10.485,18.903 12.605,20.128 13.187,20.463C13.218,20.481 13.256,20.481 13.287,20.463C13.318,20.446 13.337,20.413 13.337,20.377C13.337,19.585 13.337,16.322 13.337,15.665C13.337,15.594 13.299,15.528 13.237,15.492C12.668,15.164 9.842,13.532 9.157,13.137C9.126,13.119 9.088,13.119 9.057,13.137C9.026,13.154 9.007,13.187 9.007,13.223C9.007,13.895 9.007,16.344 9.007,17.473Z" style="fill: var(--color-3x3x3-left)"></path><path d="M0,17.935C0,18.006 0.038,18.072 0.1,18.108C0.501,18.339 2.026,19.22 3.13,19.857C3.378,20 3.683,20 3.93,19.857C4.178,19.714 4.33,19.45 4.33,19.164L4.33,17.282C4.33,16.21 3.758,15.22 2.83,14.684C1.811,14.095 0.573,13.381 0.15,13.137C0.119,13.119 0.081,13.119 0.05,13.137C0.019,13.154 -0,13.187 0,13.223C0,14.015 0,17.278 0,17.935Z" style="fill: var(--color-3x3x3-left)"></path><path d="M4.503,19.495C4.503,20.21 4.885,20.87 5.503,21.227C6.138,21.594 6.963,22.07 7.633,22.457C7.881,22.6 8.186,22.6 8.433,22.457C8.681,22.314 8.833,22.05 8.833,21.764L8.833,19.882C8.833,18.81 8.262,17.82 7.333,17.284C6.8,16.976 6.208,16.634 5.703,16.343C5.456,16.2 5.151,16.2 4.903,16.343C4.656,16.486 4.503,16.75 4.503,17.036L4.503,19.495Z" style="fill: var(--color-3x3x3-left)"></path><path d="M9.007,21.518C9.007,22.59 9.578,23.58 10.507,24.116C11.526,24.705 12.764,25.419 13.187,25.663C13.218,25.681 13.256,25.681 13.287,25.663C13.318,25.646 13.337,25.613 13.337,25.577C13.337,24.785 13.337,21.522 13.337,20.865C13.337,20.794 13.299,20.728 13.237,20.692C12.836,20.461 11.311,19.58 10.207,18.943C9.959,18.8 9.654,18.8 9.407,18.943C9.159,19.086 9.007,19.35 9.007,19.636L9.007,21.518Z" style="fill: var(--color-3x3x3-left)"></path><path d="M0,23.135C0,23.206 0.038,23.272 0.1,23.308C0.669,23.636 3.495,25.268 4.18,25.663C4.211,25.681 4.249,25.681 4.28,25.663C4.311,25.646 4.33,25.613 4.33,25.577C4.33,24.905 4.33,22.456 4.33,21.327C4.33,20.97 4.14,20.64 3.83,20.461C2.852,19.897 0.731,18.672 0.15,18.337C0.119,18.319 0.081,18.319 0.05,18.337C0.019,18.354 -0,18.387 -0,18.423C0,19.215 0,22.478 0,23.135Z" style="fill: var(--color-3x3x3-left)"></path><path d="M4.503,25.735C4.503,25.806 4.541,25.872 4.603,25.908C5.172,26.236 7.998,27.868 8.683,28.263C8.714,28.281 8.753,28.281 8.783,28.263C8.814,28.246 8.833,28.213 8.833,28.177C8.833,27.688 8.833,26.259 8.833,25.082C8.833,24.01 8.262,23.02 7.333,22.484C6.8,22.176 6.208,21.834 5.703,21.543C5.456,21.4 5.151,21.4 4.903,21.543C4.656,21.686 4.503,21.95 4.503,22.236L4.503,25.735Z" style="fill: var(--color-3x3x3-left)"></path><path d="M9.007,28.335C9.007,28.406 9.045,28.472 9.107,28.508C9.675,28.836 12.501,30.468 13.187,30.863C13.218,30.881 13.256,30.881 13.287,30.863C13.318,30.846 13.337,30.813 13.337,30.777C13.337,29.985 13.337,26.722 13.337,26.065C13.337,25.994 13.299,25.928 13.237,25.892C12.718,25.593 10.317,24.207 9.382,23.667C9.304,23.622 9.209,23.622 9.132,23.667C9.054,23.711 9.007,23.794 9.007,23.883L9.007,28.335Z" style="fill: var(--color-3x3x3-left)"></path></g><g id="U"><path d="M12.923,4.711C13.233,4.89 13.614,4.89 13.923,4.711C14.901,4.147 17.022,2.922 17.604,2.587C17.634,2.569 17.654,2.536 17.654,2.5C17.654,2.464 17.634,2.431 17.604,2.413C16.918,2.018 14.092,0.386 13.523,0.058C13.462,0.022 13.385,0.022 13.323,0.058C12.755,0.386 9.929,2.018 9.243,2.413C9.212,2.431 9.193,2.464 9.193,2.5C9.193,2.536 9.212,2.569 9.243,2.587C9.825,2.922 11.946,4.147 12.923,4.711Z" style="fill: var(--color-3x3x3-up);"></path><path d="M16.427,6.734C17.355,7.27 18.499,7.27 19.427,6.734C20.446,6.145 21.684,5.431 22.107,5.187C22.138,5.169 22.157,5.136 22.157,5.1C22.157,5.064 22.138,5.031 22.107,5.013C21.421,4.618 18.595,2.986 18.027,2.658C17.965,2.622 17.889,2.622 17.827,2.658C17.425,2.889 15.901,3.77 14.797,4.407C14.549,4.55 14.397,4.814 14.397,5.1C14.397,5.386 14.549,5.65 14.797,5.793C15.301,6.084 15.894,6.426 16.427,6.734Z" style="fill: var(--color-3x3x3-up);"></path><path d="M22.33,10.142C22.392,10.178 22.468,10.178 22.53,10.142C23.099,9.814 25.925,8.182 26.61,7.787C26.641,7.769 26.66,7.736 26.66,7.7C26.66,7.664 26.641,7.631 26.61,7.613C25.925,7.218 23.099,5.586 22.53,5.258C22.468,5.222 22.392,5.222 22.33,5.258C21.811,5.557 19.411,6.943 18.475,7.483C18.398,7.528 18.35,7.611 18.35,7.7C18.35,7.789 18.398,7.872 18.475,7.917C19.411,8.457 21.811,9.843 22.33,10.142Z" style="fill: var(--color-3x3x3-up);"></path><path d="M7.42,6.734C8.348,7.27 9.492,7.27 10.42,6.734C10.953,6.426 11.546,6.084 12.05,5.793C12.298,5.65 12.45,5.386 12.45,5.1C12.45,4.814 12.298,4.55 12.05,4.407C10.946,3.77 9.421,2.889 9.02,2.658C8.958,2.622 8.882,2.622 8.82,2.658C8.251,2.986 5.425,4.618 4.74,5.013C4.709,5.031 4.69,5.064 4.69,5.1C4.69,5.136 4.709,5.169 4.74,5.187C5.163,5.431 6.4,6.145 7.42,6.734Z" style="fill: var(--color-3x3x3-up);"></path><path d="M12.423,9.623C13.042,9.98 13.805,9.98 14.423,9.623C15.058,9.256 15.883,8.78 16.554,8.393C16.801,8.25 16.954,7.986 16.954,7.7C16.954,7.414 16.801,7.15 16.554,7.007C16.049,6.716 15.456,6.374 14.923,6.066C13.995,5.53 12.852,5.53 11.923,6.066C11.39,6.374 10.798,6.716 10.293,7.007C10.046,7.15 9.893,7.414 9.893,7.7C9.893,7.986 10.046,8.25 10.293,8.393C10.963,8.78 11.789,9.256 12.423,9.623Z" style="fill: var(--color-3x3x3-up);"></path><path d="M17.827,12.742C17.889,12.778 17.965,12.778 18.027,12.742C18.595,12.414 21.421,10.782 22.107,10.387C22.138,10.369 22.157,10.336 22.157,10.3C22.157,10.264 22.138,10.231 22.107,10.213C21.684,9.969 20.446,9.255 19.427,8.666C18.499,8.13 17.355,8.13 16.427,8.666C15.894,8.974 15.301,9.316 14.797,9.607C14.549,9.75 14.397,10.014 14.397,10.3C14.397,10.586 14.549,10.85 14.797,10.993C15.901,11.63 17.425,12.511 17.827,12.742Z" style="fill: var(--color-3x3x3-up);"></path><path d="M4.317,10.142C4.379,10.178 4.455,10.178 4.517,10.142C5.036,9.843 7.436,8.457 8.372,7.917C8.449,7.872 8.497,7.789 8.497,7.7C8.497,7.611 8.449,7.528 8.372,7.483C7.436,6.943 5.036,5.557 4.517,5.258C4.455,5.222 4.379,5.222 4.317,5.258C3.748,5.586 0.922,7.218 0.237,7.613C0.206,7.631 0.187,7.664 0.187,7.7C0.187,7.736 0.206,7.769 0.237,7.787C0.922,8.182 3.748,9.814 4.317,10.142Z" style="fill: var(--color-3x3x3-up);"></path><path d="M8.82,12.742C8.882,12.778 8.958,12.778 9.02,12.742C9.421,12.511 10.946,11.63 12.05,10.993C12.298,10.85 12.45,10.586 12.45,10.3C12.45,10.014 12.298,9.75 12.05,9.607C11.546,9.316 10.953,8.974 10.42,8.666C9.492,8.13 8.348,8.13 7.42,8.666C6.4,9.255 5.163,9.969 4.74,10.213C4.709,10.231 4.69,10.264 4.69,10.3C4.69,10.336 4.709,10.369 4.74,10.387C5.425,10.782 8.251,12.414 8.82,12.742Z" style="fill: var(--color-3x3x3-up);"></path><path d="M13.323,15.342C13.385,15.378 13.462,15.378 13.523,15.342C14.092,15.014 16.918,13.382 17.604,12.987C17.634,12.969 17.654,12.936 17.654,12.9C17.654,12.864 17.634,12.831 17.604,12.813C17.022,12.478 14.901,11.253 13.923,10.689C13.614,10.51 13.233,10.51 12.923,10.689C11.946,11.253 9.825,12.478 9.243,12.813C9.212,12.831 9.193,12.864 9.193,12.9C9.193,12.936 9.212,12.969 9.243,12.987C9.929,13.382 12.755,15.014 13.323,15.342Z" style="fill: var(--color-3x3x3-up);"></path></g></svg>