<svg class="puzzle-preview__svg" width="100%" height="100%" viewBox="0 0 32 32" version="1.1" xmlns="http://www.w3.org/2000/svg" xmlns:xlink="http://www.w3.org/1999/xlink" xml:space="preserve" xmlns:serif="http://www.serif.com/" style="fill-rule: evenodd; clip-rule: evenodd; stroke-linejoin: round; stroke-miterlimit: 2;"><desc>Puzzle preview</desc><g id="U"><path d="M11.4,3.7C11.4,3.62 11.368,3.544 11.312,3.488C11.256,3.432 11.18,3.4 11.1,3.4L3.9,3.4C3.624,3.4 3.4,3.624 3.4,3.9C3.4,5.41 3.4,9.896 3.4,11.1C3.4,11.18 3.432,11.256 3.488,11.312C3.544,11.368 3.62,11.4 3.7,11.4L10.9,11.4C11.176,11.4 11.4,11.176 11.4,10.9L11.4,3.7Z" style="fill: var(--color-ignore)"></path><path d="M19.8,3.7C19.8,3.62 19.768,3.544 19.712,3.488C19.656,3.432 19.58,3.4 19.5,3.4L12.1,3.4C12.02,3.4 11.944,3.432 11.888,3.488C11.832,3.544 11.8,3.62 11.8,3.7L11.8,9.4C11.8,10.505 12.695,11.4 13.8,11.4L17.8,11.4C18.905,11.4 19.8,10.505 19.8,9.4L19.8,3.7Z" style="fill: var(--color-3x3x3-up)"></path><path d="M28.2,3.9C28.2,3.624 27.976,3.4 27.7,3.4C26.19,3.4 21.704,3.4 20.5,3.4C20.42,3.4 20.344,3.432 20.288,3.488C20.232,3.544 20.2,3.62 20.2,3.7L20.2,10.9C20.2,11.176 20.424,11.4 20.7,11.4C22.21,11.4 26.696,11.4 27.9,11.4C27.98,11.4 28.056,11.368 28.112,11.312C28.168,11.256 28.2,11.18 28.2,11.1L28.2,3.9Z" style="fill: var(--color-ignore)"></path><path d="M11.4,13.8C11.4,12.695 10.505,11.8 9.4,11.8L3.7,11.8C3.62,11.8 3.544,11.832 3.488,11.888C3.432,11.944 3.4,12.02 3.4,12.1L3.4,19.5C3.4,19.58 3.432,19.656 3.488,19.712C3.544,19.768 3.62,19.8 3.7,19.8L9.4,19.8C10.505,19.8 11.4,18.905 11.4,17.8L11.4,13.8Z" style="fill: var(--color-3x3x3-up)"></path><path d="M19.8,14.8C19.8,13.143 18.457,11.8 16.8,11.8L14.8,11.8C13.143,11.8 11.8,13.143 11.8,14.8L11.8,16.8C11.8,18.457 13.143,19.8 14.8,19.8L16.8,19.8C18.457,19.8 19.8,18.457 19.8,16.8L19.8,14.8Z" style="fill: var(--color-3x3x3-up)"></path><path d="M28.2,12.1C28.2,12.02 28.168,11.944 28.112,11.888C28.056,11.832 27.98,11.8 27.9,11.8L22.2,11.8C21.095,11.8 20.2,12.695 20.2,13.8L20.2,17.8C20.2,18.905 21.095,19.8 22.2,19.8L27.9,19.8C27.98,19.8 28.056,19.768 28.112,19.712C28.168,19.656 28.2,19.58 28.2,19.5L28.2,12.1Z" style="fill: var(--color-3x3x3-up)"></path><path d="M11.4,20.7C11.4,20.424 11.176,20.2 10.9,20.2C9.39,20.2 4.904,20.2 3.7,20.2C3.62,20.2 3.544,20.232 3.488,20.288C3.432,20.344 3.4,20.42 3.4,20.5L3.4,27.7C3.4,27.976 3.624,28.2 3.9,28.2C5.41,28.2 9.896,28.2 11.1,28.2C11.18,28.2 11.256,28.168 11.312,28.112C11.368,28.056 11.4,27.98 11.4,27.9L11.4,20.7Z" style="fill: var(--color-ignore)"></path><path d="M19.8,22.2C19.8,21.095 18.905,20.2 17.8,20.2L13.8,20.2C12.695,20.2 11.8,21.095 11.8,22.2L11.8,27.9C11.8,27.98 11.832,28.056 11.888,28.112C11.944,28.168 12.02,28.2 12.1,28.2L19.5,28.2C19.58,28.2 19.656,28.168 19.712,28.112C19.768,28.056 19.8,27.98 19.8,27.9L19.8,22.2Z" style="fill: var(--color-3x3x3-up)"></path><path d="M28.2,20.5C28.2,20.42 28.168,20.344 28.112,20.288C28.056,20.232 27.98,20.2 27.9,20.2L20.7,20.2C20.424,20.2 20.2,20.424 20.2,20.7C20.2,22.21 20.2,26.696 20.2,27.9C20.2,27.98 20.232,28.056 20.288,28.112C20.344,28.168 20.42,28.2 20.5,28.2L27.7,28.2C27.976,28.2 28.2,27.976 28.2,27.7L28.2,20.5Z" style="fill: var(--color-ignore)"></path></g><g id="L"><path d="M0.5,3.4C0.367,3.4 0.24,3.453 0.146,3.546C0.053,3.64 0,3.767 -0,3.9L-0,10.9C0,11.176 0.224,11.4 0.5,11.4L2.7,11.4C2.78,11.4 2.856,11.368 2.912,11.312C2.968,11.256 3,11.18 3,11.1C3,9.896 3,5.41 3,3.9C3,3.624 2.776,3.4 2.5,3.4C1.945,3.4 1.055,3.4 0.5,3.4Z" style="fill: var(--color-3x3x3-up)"></path><path d="M0.5,11.8C0.367,11.8 0.24,11.853 0.146,11.946C0.053,12.04 0,12.167 -0,12.3C0,13.736 0,17.864 0,19.3C0,19.576 0.224,19.8 0.5,19.8L2.7,19.8C2.78,19.8 2.856,19.768 2.912,19.712C2.968,19.656 3,19.58 3,19.5C3,18.237 3,13.363 3,12.1C3,12.02 2.968,11.944 2.912,11.888C2.856,11.832 2.78,11.8 2.7,11.8C2.185,11.8 1.128,11.8 0.5,11.8Z" style="fill: var(--color-ignore)"></path><path d="M0.5,20.2C0.367,20.2 0.24,20.253 0.146,20.346C0.053,20.44 0,20.567 0,20.7C0,22.136 0,26.264 0,27.7C0,27.976 0.224,28.2 0.5,28.2L2.5,28.2C2.633,28.2 2.76,28.147 2.854,28.054C2.947,27.96 3,27.833 3,27.7L3,20.5C3,20.42 2.968,20.344 2.912,20.288C2.856,20.232 2.78,20.2 2.7,20.2C2.185,20.2 1.128,20.2 0.5,20.2Z" style="fill: var(--color-3x3x3-up)"></path></g><g id="F"><path id="F0" d="M3.4,31.1C3.4,31.233 3.453,31.36 3.546,31.454C3.64,31.547 3.767,31.6 3.9,31.6L10.9,31.6C11.176,31.6 11.4,31.376 11.4,31.1L11.4,28.9C11.4,28.82 11.368,28.744 11.312,28.688C11.256,28.632 11.18,28.6 11.1,28.6C9.896,28.6 5.41,28.6 3.9,28.6C3.624,28.6 3.4,28.824 3.4,29.1C3.4,29.655 3.4,30.545 3.4,31.1Z" style="fill: var(--color-ignore)"></path><path d="M11.8,31.1C11.8,31.233 11.853,31.36 11.946,31.454C12.04,31.547 12.167,31.6 12.3,31.6C13.736,31.6 17.864,31.6 19.3,31.6C19.576,31.6 19.8,31.376 19.8,31.1L19.8,28.9C19.8,28.82 19.768,28.744 19.712,28.688C19.656,28.632 19.58,28.6 19.5,28.6C18.237,28.6 13.363,28.6 12.1,28.6C12.02,28.6 11.944,28.632 11.888,28.688C11.832,28.744 11.8,28.82 11.8,28.9C11.8,29.415 11.8,30.472 11.8,31.1Z" style="fill: var(--color-ignore)"></path><path d="M20.3,31.1C20.3,31.233 20.353,31.36 20.446,31.454C20.54,31.547 20.667,31.6 20.8,31.6C22.236,31.6 26.364,31.6 27.8,31.6C28.076,31.6 28.3,31.376 28.3,31.1L28.3,29.1C28.3,28.967 28.247,28.84 28.154,28.746C28.06,28.653 27.933,28.6 27.8,28.6L20.6,28.6C20.52,28.6 20.444,28.632 20.388,28.688C20.332,28.744 20.3,28.82 20.3,28.9C20.3,29.415 20.3,30.472 20.3,31.1Z" style="fill: var(--color-3x3x3-up)"></path></g><g id="R"><path d="M31.1,28.2C31.233,28.2 31.36,28.147 31.454,28.054C31.547,27.96 31.6,27.833 31.6,27.7L31.6,20.7C31.6,20.424 31.376,20.2 31.1,20.2L28.9,20.2C28.82,20.2 28.744,20.232 28.688,20.288C28.632,20.344 28.6,20.42 28.6,20.5C28.6,21.704 28.6,26.19 28.6,27.7C28.6,27.976 28.824,28.2 29.1,28.2C29.655,28.2 30.545,28.2 31.1,28.2Z" style="fill: var(--color-ignore)"></path><path d="M31.1,19.8C31.233,19.8 31.36,19.747 31.454,19.654C31.547,19.56 31.6,19.433 31.6,19.3C31.6,17.864 31.6,13.736 31.6,12.3C31.6,12.024 31.376,11.8 31.1,11.8L28.9,11.8C28.82,11.8 28.744,11.832 28.688,11.888C28.632,11.944 28.6,12.02 28.6,12.1C28.6,13.363 28.6,18.237 28.6,19.5C28.6,19.58 28.632,19.656 28.688,19.712C28.744,19.768 28.82,19.8 28.9,19.8C29.415,19.8 30.472,19.8 31.1,19.8Z" style="fill: var(--color-ignore)"></path><path d="M31.1,11.4C31.233,11.4 31.36,11.347 31.454,11.254C31.547,11.16 31.6,11.033 31.6,10.9C31.6,9.464 31.6,5.336 31.6,3.9C31.6,3.624 31.376,3.4 31.1,3.4L29.1,3.4C28.967,3.4 28.84,3.453 28.746,3.546C28.653,3.64 28.6,3.767 28.6,3.9L28.6,11.1C28.6,11.18 28.632,11.256 28.688,11.312C28.744,11.368 28.82,11.4 28.9,11.4C29.415,11.4 30.472,11.4 31.1,11.4Z" style="fill: var(--color-ignore)"></path></g><g id="B"><path d="M28.2,0.5C28.2,0.367 28.147,0.24 28.054,0.146C27.96,0.053 27.833,0 27.7,-0L20.7,-0C20.424,0 20.2,0.224 20.2,0.5L20.2,2.7C20.2,2.78 20.232,2.856 20.288,2.912C20.344,2.968 20.42,3 20.5,3C21.704,3 26.19,3 27.7,3C27.976,3 28.2,2.776 28.2,2.5C28.2,1.945 28.2,1.055 28.2,0.5Z" style="fill: var(--color-3x3x3-up)"></path><path d="M19.8,0.5C19.8,0.367 19.747,0.24 19.654,0.146C19.56,0.053 19.433,0 19.3,0C17.864,0 13.736,0 12.3,0C12.024,0 11.8,0.224 11.8,0.5L11.8,2.7C11.8,2.78 11.832,2.856 11.888,2.912C11.944,2.968 12.02,3 12.1,3C13.363,3 18.237,3 19.5,3C19.58,3 19.656,2.968 19.712,2.912C19.768,2.856 19.8,2.78 19.8,2.7C19.8,2.185 19.8,1.128 19.8,0.5Z" style="fill: var(--color-ignore)"></path><path d="M11.4,0.5C11.4,0.367 11.347,0.24 11.254,0.146C11.16,0.053 11.033,0 10.9,0C9.464,0 5.336,0 3.9,0C3.624,0 3.4,0.224 3.4,0.5L3.4,2.5C3.4,2.633 3.453,2.76 3.546,2.854C3.64,2.947 3.767,3 3.9,3L11.1,3C11.18,3 11.256,2.968 11.312,2.912C11.368,2.856 11.4,2.78 11.4,2.7C11.4,2.185 11.4,1.128 11.4,0.5Z" style="fill: var(--color-ignore)"></path></g></svg>