<!-- Generated by IcoMoon.io -->
<svg version="1.1" xmlns="http://www.w3.org/2000/svg" width="1024" height="1024" viewBox="0 0 1024 1024">
<g id="icomoon-ignore">
</g>
<path fill="#000" d="M170.667 256q-18.133 0-30.4 12.267t-12.267 30.4 12.267 30.4 30.4 12.267h170.667q18.133 0 30.4-12.267t12.267-30.4-12.267-30.4-30.4-12.267h-170.667zM170.667 469.333q-18.133 0-30.4 12.267t-12.267 30.4 12.267 30.4 30.4 12.267h426.667q18.133 0 30.4-12.267t12.267-30.4-12.267-30.4-30.4-12.267h-426.667zM170.667 682.667q-18.133 0-30.4 12.267t-12.267 30.4 12.267 30.4 30.4 12.267h682.667q18.133 0 30.4-12.267t12.267-30.4-12.267-30.4-30.4-12.267h-682.667z"></path>
</svg>
